<svg version="1.1" viewBox="0.0 0.0 960.0 720.0" fill="none" stroke="none" stroke-linecap="square" stroke-miterlimit="10" xmlns:xlink="http://www.w3.org/1999/xlink" xmlns="http://www.w3.org/2000/svg"><clipPath id="p.0"><path d="m0 0l960.0 0l0 720.0l-960.0 0l0 -720.0z" clip-rule="nonzero"/></clipPath><g clip-path="url(#p.0)"><path fill="#000000" fill-opacity="0.0" d="m0 0l960.0 0l0 720.0l-960.0 0z" fill-rule="evenodd"/><path fill="#000000" fill-opacity="0.0" d="m469.31638 337.7533l21.543335 0" fill-rule="evenodd"/><path stroke="#ff0000" stroke-width="4.0" stroke-linejoin="round" stroke-linecap="butt" d="m469.31638 337.7533l21.543335 0" fill-rule="evenodd"/><path fill="#000000" fill-opacity="0.0" d="m469.20352 406.02625l21.543304 0" fill-rule="evenodd"/><path stroke="#ff0000" stroke-width="4.0" stroke-linejoin="round" stroke-linecap="butt" d="m469.20352 406.02625l21.543304 0" fill-rule="evenodd"/><path fill="#000000" fill-opacity="0.0" d="m469.20352 452.5092l21.543304 0" fill-rule="evenodd"/><path stroke="#ff0000" stroke-width="4.0" stroke-linejoin="round" stroke-linecap="butt" d="m469.20352 452.5092l21.543304 0" fill-rule="evenodd"/><path fill="#000000" fill-opacity="0.0" d="m469.4178 507.67978l21.543304 0" fill-rule="evenodd"/><path stroke="#ff0000" stroke-width="4.0" stroke-linejoin="round" stroke-linecap="butt" d="m469.4178 507.67978l21.543304 0" fill-rule="evenodd"/><path fill="#000000" fill-opacity="0.0" d="m469.20352 177.55786l21.543304 0" fill-rule="evenodd"/><path stroke="#ff0000" stroke-width="4.0" stroke-linejoin="round" stroke-linecap="butt" d="m469.20352 177.55786l21.543304 0" fill-rule="evenodd"/><path fill="#000000" fill-opacity="0.0" d="m469.20352 352.31235l21.543304 0" fill-rule="evenodd"/><path stroke="#ff0000" stroke-width="4.0" stroke-linejoin="round" stroke-linecap="butt" d="m469.20352 352.31235l21.543304 0" fill-rule="evenodd"/><path fill="#ff0000" d="m472.18634 415.4908l0 0c0 -0.92193604 0.7473755 -1.669281 1.6693115 -1.669281l0 0c0.4427185 0 0.8673096 0.1758728 1.1803589 0.48892212c0.31304932 0.31304932 0.48892212 0.7376404 0.48892212 1.1803589l0 0c0 0.92193604 -0.7473755 1.669281 -1.669281 1.669281l0 0c-0.92193604 0 -1.6693115 -0.747345 -1.6693115 -1.669281z" fill-rule="evenodd"/><path fill="#ff0000" d="m475.52493 429.99606l0 0c0 -0.92193604 0.7473755 -1.669281 1.669281 -1.669281l0 0c0.44274902 0 0.8673401 0.1758728 1.1803894 0.48892212c0.31304932 0.31304932 0.48892212 0.7376404 0.48892212 1.1803589l0 0c0 0.92193604 -0.7473755 1.669281 -1.6693115 1.669281l0 0c-0.9219055 0 -1.669281 -0.747345 -1.669281 -1.669281z" fill-rule="evenodd"/><path fill="#ff0000" d="m483.6168 420.33466l0 0c0 -0.92193604 0.7473755 -1.6693115 1.6693115 -1.6693115l0 0c0.4427185 0 0.8673096 0.1758728 1.1803589 0.48892212c0.31304932 0.31307983 0.48892212 0.7376709 0.48892212 1.1803894l0 0c0 0.9219055 -0.7473755 1.669281 -1.669281 1.669281l0 0c-0.92193604 0 -1.6693115 -0.7473755 -1.6693115 -1.669281z" fill-rule="evenodd"/><path fill="#ff0000" d="m478.51968 440.52493l0 0c0 -0.92193604 0.7473755 -1.669281 1.669281 -1.669281l0 0c0.44274902 0 0.8673401 0.1758728 1.1803894 0.48892212c0.31304932 0.31304932 0.48892212 0.7376404 0.48892212 1.1803589l0 0c0 0.92193604 -0.7473755 1.669281 -1.6693115 1.669281l0 0c-0.9219055 0 -1.669281 -0.747345 -1.669281 -1.669281z" fill-rule="evenodd"/><path fill="#ff0000" d="m486.51968 432.52493l0 0c0 -0.92193604 0.7473755 -1.669281 1.669281 -1.669281l0 0c0.44274902 0 0.8673401 0.1758728 1.1803894 0.48892212c0.31304932 0.31304932 0.48892212 0.7376404 0.48892212 1.1803589l0 0c0 0.92193604 -0.7473755 1.669281 -1.6693115 1.669281l0 0c-0.9219055 0 -1.669281 -0.747345 -1.669281 -1.669281z" fill-rule="evenodd"/><path fill="#ff0000" d="m485.69577 343.43524l0 0c0 -0.92193604 0.7473755 -1.6693115 1.669281 -1.6693115l0 0c0.4427185 0 0.8673096 0.1758728 1.1803589 0.48892212c0.31307983 0.31307983 0.48892212 0.7376709 0.48892212 1.1803894l0 0c0 0.9219055 -0.747345 1.669281 -1.669281 1.669281l0 0c-0.9219055 0 -1.669281 -0.7473755 -1.669281 -1.669281z" fill-rule="evenodd"/><path fill="#ff0000" d="m477.69577 346.78406l0 0c0 -0.9219055 0.7473755 -1.669281 1.669281 -1.669281l0 0c0.4427185 0 0.8673096 0.1758728 1.1803589 0.48892212c0.31307983 0.31304932 0.48892212 0.7376404 0.48892212 1.1803589l0 0c0 0.92193604 -0.747345 1.6693115 -1.669281 1.6693115l0 0c-0.9219055 0 -1.669281 -0.7473755 -1.669281 -1.6693115z" fill-rule="evenodd"/><path fill="#ff0000" d="m477.69577 119.435234l0 0c0 -0.9219208 0.7473755 -1.6692886 1.669281 -1.6692886l0 0c0.4427185 0 0.8673096 0.1758728 1.1803589 0.48892212c0.31307983 0.31304932 0.48892212 0.7376404 0.48892212 1.1803665l0 0c0 0.9219284 -0.747345 1.6692886 -1.669281 1.6692886l0 0c-0.9219055 0 -1.669281 -0.7473602 -1.669281 -1.6692886z" fill-rule="evenodd"/></g></svg>