<svg version="1.1" viewBox="0.0 0.0 960.0 720.0" fill="none" stroke="none" stroke-linecap="square" stroke-miterlimit="10" xmlns:xlink="http://www.w3.org/1999/xlink" xmlns="http://www.w3.org/2000/svg"><clipPath id="p.0"><path d="m0 0l960.0 0l0 720.0l-960.0 0l0 -720.0z" clip-rule="nonzero"/></clipPath><g clip-path="url(#p.0)"><path fill="#000000" fill-opacity="0.0" d="m0 0l960.0 0l0 720.0l-960.0 0z" fill-rule="evenodd"/><defs><radialGradient id="p.1" gradientUnits="userSpaceOnUse" gradientTransform="matrix(3.937089222625773 0.0 0.0 3.937089222625773 0.0 0.0)" spreadMethod="pad" cx="121.91748087432785" cy="31.474682986218507" fx="121.91748087432785" fy="31.474682986218507" r="3.937089204788208"><stop offset="0.0" stop-color="#4a86e8"/><stop offset="1.0" stop-color="#cfe2f4"/></radialGradient></defs><path fill="url(#p.1)" d="m469.03937 123.91863l0 0c0 -6.053383 4.907257 -10.960625 10.960632 -10.960625l0 0c2.906952 0 5.694824 1.1547775 7.7503357 3.210289c2.0555115 2.055519 3.2102966 4.843399 3.2102966 7.7503357l0 0c0 6.053398 -4.907257 10.96064 -10.960632 10.96064l0 0c-6.0533752 0 -10.960632 -4.907242 -10.960632 -10.96064z" fill-rule="evenodd"/><path stroke="#000000" stroke-width="1.0" stroke-linejoin="round" stroke-linecap="butt" d="m469.03937 123.91863l0 0c0 -6.053383 4.907257 -10.960625 10.960632 -10.960625l0 0c2.906952 0 5.694824 1.1547775 7.7503357 3.210289c2.0555115 2.055519 3.2102966 4.843399 3.2102966 7.7503357l0 0c0 6.053398 -4.907257 10.96064 -10.960632 10.96064l0 0c-6.0533752 0 -10.960632 -4.907242 -10.960632 -10.96064z" fill-rule="evenodd"/><defs><radialGradient id="p.2" gradientUnits="userSpaceOnUse" gradientTransform="matrix(5.448664370835945 0.0 0.0 5.448664370835945 0.0 0.0)" spreadMethod="pad" cx="88.09511260806349" cy="62.60347372902457" fx="88.09511260806349" fy="62.60347372902457" r="5.44866418838501"><stop offset="0.0" stop-color="#4a86e8"/><stop offset="1.0" stop-color="#cfe2f4"/></radialGradient></defs><path fill="url(#p.2)" d="m469.04007 317.1683l0 0c0 -2.0177917 1.6357422 -3.653534 3.653534 -3.653534l14.614197 0l0 0c0.9689636 0 1.8982544 0.3849182 2.583435 1.0700989c0.68518066 0.68518066 1.0700989 1.6144714 1.0700989 2.583435l0 47.874023c0 2.0177917 -1.6357422 3.653534 -3.653534 3.653534l-14.614197 0c-2.0177917 0 -3.653534 -1.6357422 -3.653534 -3.653534z" fill-rule="evenodd"/><path stroke="#000000" stroke-width="1.0" stroke-linejoin="round" stroke-linecap="butt" d="m469.04007 317.1683l0 0c0 -2.0177917 1.6357422 -3.653534 3.653534 -3.653534l14.614197 0l0 0c0.9689636 0 1.8982544 0.3849182 2.583435 1.0700989c0.68518066 0.68518066 1.0700989 1.6144714 1.0700989 2.583435l0 47.874023c0 2.0177917 -1.6357422 3.653534 -3.653534 3.653534l-14.614197 0c-2.0177917 0 -3.653534 -1.6357422 -3.653534 -3.653534z" fill-rule="evenodd"/><defs><radialGradient id="p.3" gradientUnits="userSpaceOnUse" gradientTransform="matrix(5.935411334867601 0.0 0.0 5.935411334867601 0.0 0.0)" spreadMethod="pad" cx="80.87040095577403" cy="99.47774795107375" fx="80.87040095577403" fy="99.47774795107375" r="5.93541145324707"><stop offset="0.0" stop-color="#ea9999"/><stop offset="1.0" stop-color="#9fc5e8"/></radialGradient></defs><path fill="url(#p.3)" d="m458.0936 570.15265l0 0c0 -4.032715 3.2691345 -7.301819 7.301819 -7.301819l29.207367 0l0 0c1.936554 0 3.7937927 0.7692871 5.1631775 2.1386108c1.3693542 1.3693848 2.1386414 3.2266235 2.1386414 5.163208l0 40.577393c0 4.032715 -3.2691345 7.30188 -7.301819 7.30188l-29.207367 0c-4.0326843 0 -7.301819 -3.269165 -7.301819 -7.30188z" fill-rule="evenodd"/><path stroke="#000000" stroke-width="1.0" stroke-linejoin="round" stroke-linecap="butt" d="m458.0936 570.15265l0 0c0 -4.032715 3.2691345 -7.301819 7.301819 -7.301819l29.207367 0l0 0c1.936554 0 3.7937927 0.7692871 5.1631775 2.1386108c1.3693542 1.3693848 2.1386414 3.2266235 2.1386414 5.163208l0 40.577393c0 4.032715 -3.2691345 7.30188 -7.301819 7.30188l-29.207367 0c-4.0326843 0 -7.301819 -3.269165 -7.301819 -7.30188z" fill-rule="evenodd"/><defs><radialGradient id="p.4" gradientUnits="userSpaceOnUse" gradientTransform="matrix(5.448664370835945 0.0 0.0 5.448664370835945 0.0 0.0)" spreadMethod="pad" cx="88.09366748037492" cy="77.9858945554159" fx="88.09366748037492" fy="77.9858945554159" r="5.44866418838501"><stop offset="0.0" stop-color="#4a86e8"/><stop offset="1.0" stop-color="#cfe2f4"/></radialGradient></defs><path fill="url(#p.4)" d="m469.0322 400.98196l0 0c0 -2.0177917 1.6357422 -3.6535645 3.653534 -3.6535645l14.614197 0l0 0c0.9689636 0 1.8982544 0.38494873 2.583435 1.0700989c0.68518066 0.68518066 1.0700989 1.6144714 1.0700989 2.5834656l0 47.874023c0 2.0177917 -1.6357422 3.653534 -3.653534 3.653534l-14.614197 0c-2.0177917 0 -3.653534 -1.6357422 -3.653534 -3.653534z" fill-rule="evenodd"/><path stroke="#000000" stroke-width="1.0" stroke-linejoin="round" stroke-linecap="butt" d="m469.0322 400.98196l0 0c0 -2.0177917 1.6357422 -3.6535645 3.653534 -3.6535645l14.614197 0l0 0c0.9689636 0 1.8982544 0.38494873 2.583435 1.0700989c0.68518066 0.68518066 1.0700989 1.6144714 1.0700989 2.5834656l0 47.874023c0 2.0177917 -1.6357422 3.653534 -3.653534 3.653534l-14.614197 0c-2.0177917 0 -3.653534 -1.6357422 -3.653534 -3.653534z" fill-rule="evenodd"/><defs><radialGradient id="p.5" gradientUnits="userSpaceOnUse" gradientTransform="matrix(5.448664370835945 0.0 0.0 5.448664370835945 0.0 0.0)" spreadMethod="pad" cx="88.09366748037492" cy="88.11140830141812" fx="88.09366748037492" fy="88.11140830141812" r="5.44866418838501"><stop offset="0.0" stop-color="#4a86e8"/><stop offset="1.0" stop-color="#cfe2f4"/></radialGradient></defs><path fill="url(#p.5)" d="m469.0322 456.1525l0 0c0 -2.0178223 1.6357422 -3.6535645 3.653534 -3.6535645l14.614197 0l0 0c0.9689636 0 1.8982544 0.38494873 2.583435 1.0700989c0.68518066 0.68518066 1.0700989 1.6144714 1.0700989 2.5834656l0 47.873993c0 2.0177917 -1.6357422 3.6535645 -3.653534 3.6535645l-14.614197 0c-2.0177917 0 -3.653534 -1.6357727 -3.653534 -3.6535645z" fill-rule="evenodd"/><path stroke="#000000" stroke-width="1.0" stroke-linejoin="round" stroke-linecap="butt" d="m469.0322 456.1525l0 0c0 -2.0178223 1.6357422 -3.6535645 3.653534 -3.6535645l14.614197 0l0 0c0.9689636 0 1.8982544 0.38494873 2.583435 1.0700989c0.68518066 0.68518066 1.0700989 1.6144714 1.0700989 2.5834656l0 47.873993c0 2.0177917 -1.6357422 3.6535645 -3.653534 3.6535645l-14.614197 0c-2.0177917 0 -3.653534 -1.6357727 -3.653534 -3.6535645z" fill-rule="evenodd"/><defs><radialGradient id="p.6" gradientUnits="userSpaceOnUse" gradientTransform="matrix(5.448664370835945 0.0 0.0 5.448664370835945 0.0 0.0)" spreadMethod="pad" cx="88.09366748037492" cy="98.23692204742036" fx="88.09366748037492" fy="98.23692204742036" r="5.44866418838501"><stop offset="0.0" stop-color="#ea9999"/><stop offset="1.0" stop-color="#9fc5e8"/></radialGradient></defs><path fill="url(#p.6)" d="m469.0322 511.323l0 0c0 -2.0177917 1.6357422 -3.653534 3.653534 -3.653534l14.614197 0l0 0c0.9689636 0 1.8982544 0.3849182 2.583435 1.0700989c0.68518066 0.68518066 1.0700989 1.6144714 1.0700989 2.583435l0 47.874023c0 2.0178223 -1.6357422 3.6535645 -3.653534 3.6535645l-14.614197 0c-2.0177917 0 -3.653534 -1.6357422 -3.653534 -3.6535645z" fill-rule="evenodd"/><path stroke="#000000" stroke-width="1.0" stroke-linejoin="round" stroke-linecap="butt" d="m469.0322 511.323l0 0c0 -2.0177917 1.6357422 -3.653534 3.653534 -3.653534l14.614197 0l0 0c0.9689636 0 1.8982544 0.3849182 2.583435 1.0700989c0.68518066 0.68518066 1.0700989 1.6144714 1.0700989 2.583435l0 47.874023c0 2.0178223 -1.6357422 3.6535645 -3.653534 3.6535645l-14.614197 0c-2.0177917 0 -3.653534 -1.6357422 -3.653534 -3.6535645z" fill-rule="evenodd"/><defs><radialGradient id="p.7" gradientUnits="userSpaceOnUse" gradientTransform="matrix(6.246513545287217 0.0 0.0 6.246513545287217 0.0 0.0)" spreadMethod="pad" cx="76.83908383019224" cy="60.583506750509585" fx="76.83908383019224" fy="60.583506750509585" r="6.246513366699219"><stop offset="0.0" stop-color="#cc4125"/><stop offset="1.0" stop-color="#9fc5e8"/></radialGradient></defs><path fill="url(#p.7)" d="m452.38583 378.4357l0 0c0 -15.237854 12.352692 -27.590546 27.590546 -27.590546l0 0c7.3174744 0 14.335236 2.9068298 19.50946 8.081085c5.174225 5.174225 8.081085 12.191986 8.081085 19.50946l0 0c0 15.2378235 -12.352692 27.590546 -27.590546 27.590546l0 0c-15.237854 0 -27.590546 -12.352722 -27.590546 -27.590546z" fill-rule="evenodd"/><path stroke="#000000" stroke-width="1.0" stroke-linejoin="round" stroke-linecap="butt" d="m452.38583 378.4357l0 0c0 -15.237854 12.352692 -27.590546 27.590546 -27.590546l0 0c7.3174744 0 14.335236 2.9068298 19.50946 8.081085c5.174225 5.174225 8.081085 12.191986 8.081085 19.50946l0 0c0 15.2378235 -12.352692 27.590546 -27.590546 27.590546l0 0c-15.237854 0 -27.590546 -12.352722 -27.590546 -27.590546z" fill-rule="evenodd"/><defs><radialGradient id="p.8" gradientUnits="userSpaceOnUse" gradientTransform="matrix(5.188013841040654 0.0 0.0 5.188013841040654 0.0 0.0)" spreadMethod="pad" cx="58.840454404471" cy="72.94400506034623" fx="58.840454404471" fy="72.94400506034623" r="5.188014030456543"><stop offset="0.0" stop-color="#ea9999"/><stop offset="1.0" stop-color="#9fc5e8"/></radialGradient></defs><path fill="url(#p.8)" d="m294.30447 357.50537l0 0c0 -2.0177917 1.6357422 -3.653534 3.653534 -3.653534l14.614166 0l0 0c0.96899414 0 1.8982849 0.3849182 2.583435 1.0700989c0.68518066 0.68515015 1.0700989 1.6144714 1.0700989 2.583435l0 41.858276c0 2.0177917 -1.6357422 3.653534 -3.653534 3.653534l-14.614166 0c-2.0177917 0 -3.653534 -1.6357422 -3.653534 -3.653534z" fill-rule="evenodd"/><path stroke="#000000" stroke-width="1.0" stroke-linejoin="round" stroke-linecap="butt" d="m294.30447 357.50537l0 0c0 -2.0177917 1.6357422 -3.653534 3.653534 -3.653534l14.614166 0l0 0c0.96899414 0 1.8982849 0.3849182 2.583435 1.0700989c0.68518066 0.68515015 1.0700989 1.6144714 1.0700989 2.583435l0 41.858276c0 2.0177917 -1.6357422 3.653534 -3.653534 3.653534l-14.614166 0c-2.0177917 0 -3.653534 -1.6357422 -3.653534 -3.653534z" fill-rule="evenodd"/><path fill="#cfe2f3" d="m437.8506 365.8308l0 0c0 -3.4789734 2.8202515 -6.299225 6.299225 -6.299225l71.68503 0c1.6706543 0 3.2728882 0.6636658 4.4542236 1.8450012c1.1813354 1.1813354 1.8449707 2.7835693 1.8449707 4.4542236l0 25.196838c0 3.4789734 -2.8202515 6.299225 -6.2991943 6.299225l-71.68503 0c-3.4789734 0 -6.299225 -2.8202515 -6.299225 -6.299225z" fill-rule="evenodd"/><path stroke="#000000" stroke-width="1.0" stroke-linejoin="round" stroke-linecap="butt" d="m437.8506 365.8308l0 0c0 -3.4789734 2.8202515 -6.299225 6.299225 -6.299225l71.68503 0c1.6706543 0 3.2728882 0.6636658 4.4542236 1.8450012c1.1813354 1.1813354 1.8449707 2.7835693 1.8449707 4.4542236l0 25.196838c0 3.4789734 -2.8202515 6.299225 -6.2991943 6.299225l-71.68503 0c-3.4789734 0 -6.299225 -2.8202515 -6.299225 -6.299225z" fill-rule="evenodd"/><defs><radialGradient id="p.9" gradientUnits="userSpaceOnUse" gradientTransform="matrix(5.188013841040654 0.0 0.0 5.188013841040654 0.0 0.0)" spreadMethod="pad" cx="126.2012875895338" cy="72.94400506034623" fx="126.2012875895338" fy="72.94400506034623" r="5.188014030456543"><stop offset="0.0" stop-color="#ea9999"/><stop offset="1.0" stop-color="#9fc5e8"/></radialGradient></defs><path fill="url(#p.9)" d="m643.7734 357.50537l0 0c0 -2.0177917 1.6357422 -3.653534 3.6535645 -3.653534l14.614197 0l0 0c0.9689331 0 1.8982544 0.3849182 2.583435 1.0700989c0.68518066 0.68515015 1.0700684 1.6144714 1.0700684 2.583435l0 41.858276c0 2.0177917 -1.6357422 3.653534 -3.6535034 3.653534l-14.614197 0c-2.0178223 0 -3.6535645 -1.6357422 -3.6535645 -3.653534z" fill-rule="evenodd"/><path stroke="#000000" stroke-width="1.0" stroke-linejoin="round" stroke-linecap="butt" d="m643.7734 357.50537l0 0c0 -2.0177917 1.6357422 -3.653534 3.6535645 -3.653534l14.614197 0l0 0c0.9689331 0 1.8982544 0.3849182 2.583435 1.0700989c0.68518066 0.68515015 1.0700684 1.6144714 1.0700684 2.583435l0 41.858276c0 2.0177917 -1.6357422 3.653534 -3.6535034 3.653534l-14.614197 0c-2.0178223 0 -3.6535645 -1.6357422 -3.6535645 -3.653534z" fill-rule="evenodd"/><path fill="#cfe2f3" d="m304.22882 371.94083l0 0c0 -1.7916565 1.4524231 -3.24411 3.24411 -3.24411l345.00784 0c0.8604126 0 1.6855469 0.34179688 2.2939453 0.9501953c0.60839844 0.6083679 0.9501953 1.4335327 0.9501953 2.2939148l0 12.976379c0 1.7916565 -1.4524536 3.2440796 -3.2441406 3.2440796l-345.00784 0l0 0c-1.791687 0 -3.24411 -1.4524231 -3.24411 -3.2440796z" fill-rule="evenodd"/><path stroke="#000000" stroke-width="1.0" stroke-linejoin="round" stroke-linecap="butt" d="m304.22882 371.94083l0 0c0 -1.7916565 1.4524231 -3.24411 3.24411 -3.24411l345.00784 0c0.8604126 0 1.6855469 0.34179688 2.2939453 0.9501953c0.60839844 0.6083679 0.9501953 1.4335327 0.9501953 2.2939148l0 12.976379c0 1.7916565 -1.4524536 3.2440796 -3.2441406 3.2440796l-345.00784 0l0 0c-1.791687 0 -3.24411 -1.4524231 -3.24411 -3.2440796z" fill-rule="evenodd"/><defs><radialGradient id="p.10" gradientUnits="userSpaceOnUse" gradientTransform="matrix(9.315275088992047 0.0 0.0 9.315275088992047 0.0 0.0)" spreadMethod="pad" cx="51.528147582139056" cy="27.646281862275554" fx="51.528147582139056" fy="27.646281862275554" r="9.315275192260742"><stop offset="0.0" stop-color="#ea9999"/><stop offset="1.0" stop-color="#9fc5e8"/></radialGradient></defs><path fill="url(#p.10)" d="m446.42407 188.70857l0 0c0 -6.180954 5.0106506 -11.191605 11.191589 -11.191605l44.76642 0l0 0c2.9682007 0 5.8148193 1.1791229 7.9136353 3.277954c2.098816 2.0988312 3.277954 4.94545 3.277954 7.9136505l0 137.6483c0 6.1809387 -5.0106506 11.191589 -11.191589 11.191589l-44.76642 0c-6.1809387 0 -11.191589 -5.0106506 -11.191589 -11.191589z" fill-rule="evenodd"/><path stroke="#000000" stroke-width="1.0" stroke-linejoin="round" stroke-linecap="butt" d="m446.42407 188.70857l0 0c0 -6.180954 5.0106506 -11.191605 11.191589 -11.191605l44.76642 0l0 0c2.9682007 0 5.8148193 1.1791229 7.9136353 3.277954c2.098816 2.0988312 3.277954 4.94545 3.277954 7.9136505l0 137.6483c0 6.1809387 -5.0106506 11.191589 -11.191589 11.191589l-44.76642 0c-6.1809387 0 -11.191589 -5.0106506 -11.191589 -11.191589z" fill-rule="evenodd"/><path fill="#cfe2f3" d="m469.01645 127.811195l0 0c0 -2.0177917 1.6357422 -3.6535416 3.653534 -3.6535416l14.614197 0l0 0c0.9689636 0 1.8982544 0.38492584 2.583435 1.0700989c0.68518066 0.68517303 1.0700989 1.6144638 1.0700989 2.5834427l0 47.874016c0 2.0177917 -1.6357422 3.6535492 -3.653534 3.6535492l-14.614197 0c-2.0177917 0 -3.653534 -1.6357574 -3.653534 -3.6535492z" fill-rule="evenodd"/><path stroke="#000000" stroke-width="1.0" stroke-linejoin="round" stroke-linecap="butt" d="m469.01645 127.811195l0 0c0 -2.0177917 1.6357422 -3.6535416 3.653534 -3.6535416l14.614197 0l0 0c0.9689636 0 1.8982544 0.38492584 2.583435 1.0700989c0.68518066 0.68517303 1.0700989 1.6144638 1.0700989 2.5834427l0 47.874016c0 2.0177917 -1.6357422 3.6535492 -3.653534 3.6535492l-14.614197 0c-2.0177917 0 -3.653534 -1.6357574 -3.653534 -3.6535492z" fill-rule="evenodd"/><defs><radialGradient id="p.11" gradientUnits="userSpaceOnUse" gradientTransform="matrix(0.0 5.598985209451456 -5.598985209451456 0.0 0.0 0.0)" spreadMethod="pad" cx="108.9694091719158" cy="-98.6511726733116" fx="108.9694091719158" fy="-98.6511726733116" r="5.598985195159912"><stop offset="0.0" stop-color="#4a86e8"/><stop offset="1.0" stop-color="#cfe2f4"/></radialGradient></defs><path fill="url(#p.11)" d="m541.3858 580.74805l21.921265 0l-21.921265 58.740112z" fill-rule="evenodd"/><path stroke="#000000" stroke-width="1.0" stroke-linejoin="round" stroke-linecap="butt" d="m541.3858 580.74805l21.921265 0l-21.921265 58.740112z" fill-rule="evenodd"/><defs><radialGradient id="p.12" gradientUnits="userSpaceOnUse" gradientTransform="matrix(7.883687480947231 0.0 0.0 7.883687480947231 0.0 0.0)" spreadMethod="pad" cx="60.885214077807106" cy="76.26066159396724" fx="60.885214077807106" fy="76.26066159396724" r="7.883687496185303"><stop offset="0.0" stop-color="#4a86e8"/><stop offset="1.0" stop-color="#cfe2f4"/></radialGradient></defs><path fill="url(#p.12)" d="m418.61417 591.4829l122.77164 0l0 19.4646l-122.77164 0z" fill-rule="evenodd"/><path stroke="#000000" stroke-width="1.0" stroke-linejoin="round" stroke-linecap="butt" d="m418.61417 591.4829l122.77164 0l0 19.4646l-122.77164 0z" fill-rule="evenodd"/><defs><radialGradient id="p.13" gradientUnits="userSpaceOnUse" gradientTransform="matrix(0.0 5.598985209451456 5.598985209451456 0.0 0.0 0.0)" spreadMethod="pad" cx="108.9694091719158" cy="72.80846940244467" fx="108.9694091719158" fy="72.80846940244467" r="5.598985195159912"><stop offset="0.0" stop-color="#4a86e8"/><stop offset="1.0" stop-color="#cfe2f4"/></radialGradient></defs><path fill="url(#p.13)" d="m418.61417 580.74805l-21.921265 0l21.921265 58.740112z" fill-rule="evenodd"/><path stroke="#000000" stroke-width="1.0" stroke-linejoin="round" stroke-linecap="butt" d="m418.61417 580.74805l-21.921265 0l21.921265 58.740112z" fill-rule="evenodd"/><defs><radialGradient id="p.14" gradientUnits="userSpaceOnUse" gradientTransform="matrix(-5.46074592363414 0.0 0.0 -5.46074592363414 0.0 0.0)" spreadMethod="pad" cx="-87.90027160782542" cy="-111.42027184276569" fx="-87.90027160782542" fy="-111.42027184276569" r="5.460745811462402"><stop offset="0.0" stop-color="#4a86e8"/><stop offset="1.0" stop-color="#cfe2f4"/></radialGradient></defs><path fill="url(#p.14)" d="m491.1979 580.8l-11.196869 55.275574l-11.196838 -55.275574z" fill-rule="evenodd"/><path stroke="#000000" stroke-width="1.0" stroke-linejoin="round" stroke-linecap="butt" d="m491.1979 580.8l-11.196869 55.275574l-11.196838 -55.275574z" fill-rule="evenodd"/></g></svg>