<svg version="1.1" viewBox="0.0 0.0 960.0 720.0" fill="none" stroke="none" stroke-linecap="square" stroke-miterlimit="10" xmlns:xlink="http://www.w3.org/1999/xlink" xmlns="http://www.w3.org/2000/svg"><clipPath id="p.0"><path d="m0 0l960.0 0l0 720.0l-960.0 0l0 -720.0z" clip-rule="nonzero"/></clipPath><g clip-path="url(#p.0)"><path fill="#000000" fill-opacity="0.0" d="m0 0l960.0 0l0 720.0l-960.0 0z" fill-rule="evenodd"/><path fill="#cfe2f3" d="m469.03937 123.91863l0 0c0 -6.053383 4.907257 -10.960625 10.960632 -10.960625l0 0c2.906952 0 5.694824 1.1547775 7.7503357 3.210289c2.0555115 2.055519 3.2102966 4.843399 3.2102966 7.7503357l0 0c0 6.053398 -4.907257 10.96064 -10.960632 10.96064l0 0c-6.0533752 0 -10.960632 -4.907242 -10.960632 -10.96064z" fill-rule="evenodd"/><path stroke="#000000" stroke-width="1.0" stroke-linejoin="round" stroke-linecap="butt" d="m469.03937 123.91863l0 0c0 -6.053383 4.907257 -10.960625 10.960632 -10.960625l0 0c2.906952 0 5.694824 1.1547775 7.7503357 3.210289c2.0555115 2.055519 3.2102966 4.843399 3.2102966 7.7503357l0 0c0 6.053398 -4.907257 10.96064 -10.960632 10.96064l0 0c-6.0533752 0 -10.960632 -4.907242 -10.960632 -10.96064z" fill-rule="evenodd"/><path fill="#cfe2f3" d="m469.04007 317.1683l0 0c0 -2.0177917 1.6357422 -3.653534 3.653534 -3.653534l14.614197 0l0 0c0.9689636 0 1.8982544 0.3849182 2.583435 1.0700989c0.68518066 0.68518066 1.0700989 1.6144714 1.0700989 2.583435l0 47.874023c0 2.0177917 -1.6357422 3.653534 -3.653534 3.653534l-14.614197 0c-2.0177917 0 -3.653534 -1.6357422 -3.653534 -3.653534z" fill-rule="evenodd"/><path stroke="#000000" stroke-width="1.0" stroke-linejoin="round" stroke-linecap="butt" d="m469.04007 317.1683l0 0c0 -2.0177917 1.6357422 -3.653534 3.653534 -3.653534l14.614197 0l0 0c0.9689636 0 1.8982544 0.3849182 2.583435 1.0700989c0.68518066 0.68518066 1.0700989 1.6144714 1.0700989 2.583435l0 47.874023c0 2.0177917 -1.6357422 3.653534 -3.653534 3.653534l-14.614197 0c-2.0177917 0 -3.653534 -1.6357422 -3.653534 -3.653534z" fill-rule="evenodd"/><path fill="#cfe2f3" d="m458.0936 570.15265l0 0c0 -4.032715 3.2691345 -7.301819 7.301819 -7.301819l29.207367 0l0 0c1.936554 0 3.7937927 0.7692871 5.1631775 2.1386108c1.3693542 1.3693848 2.1386414 3.2266235 2.1386414 5.163208l0 40.577393c0 4.032715 -3.2691345 7.30188 -7.301819 7.30188l-29.207367 0c-4.0326843 0 -7.301819 -3.269165 -7.301819 -7.30188z" fill-rule="evenodd"/><path stroke="#000000" stroke-width="1.0" stroke-linejoin="round" stroke-linecap="butt" d="m458.0936 570.15265l0 0c0 -4.032715 3.2691345 -7.301819 7.301819 -7.301819l29.207367 0l0 0c1.936554 0 3.7937927 0.7692871 5.1631775 2.1386108c1.3693542 1.3693848 2.1386414 3.2266235 2.1386414 5.163208l0 40.577393c0 4.032715 -3.2691345 7.30188 -7.301819 7.30188l-29.207367 0c-4.0326843 0 -7.301819 -3.269165 -7.301819 -7.30188z" fill-rule="evenodd"/><path fill="#cfe2f3" d="m469.0322 400.98196l0 0c0 -2.0177917 1.6357422 -3.6535645 3.653534 -3.6535645l14.614197 0l0 0c0.9689636 0 1.8982544 0.38494873 2.583435 1.0700989c0.68518066 0.68518066 1.0700989 1.6144714 1.0700989 2.5834656l0 47.874023c0 2.0177917 -1.6357422 3.653534 -3.653534 3.653534l-14.614197 0c-2.0177917 0 -3.653534 -1.6357422 -3.653534 -3.653534z" fill-rule="evenodd"/><path stroke="#000000" stroke-width="1.0" stroke-linejoin="round" stroke-linecap="butt" d="m469.0322 400.98196l0 0c0 -2.0177917 1.6357422 -3.6535645 3.653534 -3.6535645l14.614197 0l0 0c0.9689636 0 1.8982544 0.38494873 2.583435 1.0700989c0.68518066 0.68518066 1.0700989 1.6144714 1.0700989 2.5834656l0 47.874023c0 2.0177917 -1.6357422 3.653534 -3.653534 3.653534l-14.614197 0c-2.0177917 0 -3.653534 -1.6357422 -3.653534 -3.653534z" fill-rule="evenodd"/><path fill="#cfe2f3" d="m469.0322 456.1525l0 0c0 -2.0178223 1.6357422 -3.6535645 3.653534 -3.6535645l14.614197 0l0 0c0.9689636 0 1.8982544 0.38494873 2.583435 1.0700989c0.68518066 0.68518066 1.0700989 1.6144714 1.0700989 2.5834656l0 47.873993c0 2.0177917 -1.6357422 3.6535645 -3.653534 3.6535645l-14.614197 0c-2.0177917 0 -3.653534 -1.6357727 -3.653534 -3.6535645z" fill-rule="evenodd"/><path stroke="#000000" stroke-width="1.0" stroke-linejoin="round" stroke-linecap="butt" d="m469.0322 456.1525l0 0c0 -2.0178223 1.6357422 -3.6535645 3.653534 -3.6535645l14.614197 0l0 0c0.9689636 0 1.8982544 0.38494873 2.583435 1.0700989c0.68518066 0.68518066 1.0700989 1.6144714 1.0700989 2.5834656l0 47.873993c0 2.0177917 -1.6357422 3.6535645 -3.653534 3.6535645l-14.614197 0c-2.0177917 0 -3.653534 -1.6357727 -3.653534 -3.6535645z" fill-rule="evenodd"/><path fill="#cfe2f3" d="m469.0322 511.323l0 0c0 -2.0177917 1.6357422 -3.653534 3.653534 -3.653534l14.614197 0l0 0c0.9689636 0 1.8982544 0.3849182 2.583435 1.0700989c0.68518066 0.68518066 1.0700989 1.6144714 1.0700989 2.583435l0 47.874023c0 2.0178223 -1.6357422 3.6535645 -3.653534 3.6535645l-14.614197 0c-2.0177917 0 -3.653534 -1.6357422 -3.653534 -3.6535645z" fill-rule="evenodd"/><path stroke="#000000" stroke-width="1.0" stroke-linejoin="round" stroke-linecap="butt" d="m469.0322 511.323l0 0c0 -2.0177917 1.6357422 -3.653534 3.653534 -3.653534l14.614197 0l0 0c0.9689636 0 1.8982544 0.3849182 2.583435 1.0700989c0.68518066 0.68518066 1.0700989 1.6144714 1.0700989 2.583435l0 47.874023c0 2.0178223 -1.6357422 3.6535645 -3.653534 3.6535645l-14.614197 0c-2.0177917 0 -3.653534 -1.6357422 -3.653534 -3.6535645z" fill-rule="evenodd"/><path fill="#cfe2f3" d="m452.38583 378.4357l0 0c0 -15.237854 12.352692 -27.590546 27.590546 -27.590546l0 0c7.3174744 0 14.335236 2.9068298 19.50946 8.081085c5.174225 5.174225 8.081085 12.191986 8.081085 19.50946l0 0c0 15.2378235 -12.352692 27.590546 -27.590546 27.590546l0 0c-15.237854 0 -27.590546 -12.352722 -27.590546 -27.590546z" fill-rule="evenodd"/><path stroke="#000000" stroke-width="1.0" stroke-linejoin="round" stroke-linecap="butt" d="m452.38583 378.4357l0 0c0 -15.237854 12.352692 -27.590546 27.590546 -27.590546l0 0c7.3174744 0 14.335236 2.9068298 19.50946 8.081085c5.174225 5.174225 8.081085 12.191986 8.081085 19.50946l0 0c0 15.2378235 -12.352692 27.590546 -27.590546 27.590546l0 0c-15.237854 0 -27.590546 -12.352722 -27.590546 -27.590546z" fill-rule="evenodd"/><path fill="#cfe2f3" d="m294.30447 357.50537l0 0c0 -2.0177917 1.6357422 -3.653534 3.653534 -3.653534l14.614166 0l0 0c0.96899414 0 1.8982849 0.3849182 2.583435 1.0700989c0.68518066 0.68515015 1.0700989 1.6144714 1.0700989 2.583435l0 41.858276c0 2.0177917 -1.6357422 3.653534 -3.653534 3.653534l-14.614166 0c-2.0177917 0 -3.653534 -1.6357422 -3.653534 -3.653534z" fill-rule="evenodd"/><path stroke="#000000" stroke-width="1.0" stroke-linejoin="round" stroke-linecap="butt" d="m294.30447 357.50537l0 0c0 -2.0177917 1.6357422 -3.653534 3.653534 -3.653534l14.614166 0l0 0c0.96899414 0 1.8982849 0.3849182 2.583435 1.0700989c0.68518066 0.68515015 1.0700989 1.6144714 1.0700989 2.583435l0 41.858276c0 2.0177917 -1.6357422 3.653534 -3.653534 3.653534l-14.614166 0c-2.0177917 0 -3.653534 -1.6357422 -3.653534 -3.653534z" fill-rule="evenodd"/><path fill="#cfe2f3" d="m437.8506 365.8308l0 0c0 -3.4789734 2.8202515 -6.299225 6.299225 -6.299225l71.68503 0c1.6706543 0 3.2728882 0.6636658 4.4542236 1.8450012c1.1813354 1.1813354 1.8449707 2.7835693 1.8449707 4.4542236l0 25.196838c0 3.4789734 -2.8202515 6.299225 -6.2991943 6.299225l-71.68503 0c-3.4789734 0 -6.299225 -2.8202515 -6.299225 -6.299225z" fill-rule="evenodd"/><path stroke="#000000" stroke-width="1.0" stroke-linejoin="round" stroke-linecap="butt" d="m437.8506 365.8308l0 0c0 -3.4789734 2.8202515 -6.299225 6.299225 -6.299225l71.68503 0c1.6706543 0 3.2728882 0.6636658 4.4542236 1.8450012c1.1813354 1.1813354 1.8449707 2.7835693 1.8449707 4.4542236l0 25.196838c0 3.4789734 -2.8202515 6.299225 -6.2991943 6.299225l-71.68503 0c-3.4789734 0 -6.299225 -2.8202515 -6.299225 -6.299225z" fill-rule="evenodd"/><path fill="#cfe2f3" d="m643.7734 357.50537l0 0c0 -2.0177917 1.6357422 -3.653534 3.6535645 -3.653534l14.614197 0l0 0c0.9689331 0 1.8982544 0.3849182 2.583435 1.0700989c0.68518066 0.68515015 1.0700684 1.6144714 1.0700684 2.583435l0 41.858276c0 2.0177917 -1.6357422 3.653534 -3.6535034 3.653534l-14.614197 0c-2.0178223 0 -3.6535645 -1.6357422 -3.6535645 -3.653534z" fill-rule="evenodd"/><path stroke="#000000" stroke-width="1.0" stroke-linejoin="round" stroke-linecap="butt" d="m643.7734 357.50537l0 0c0 -2.0177917 1.6357422 -3.653534 3.6535645 -3.653534l14.614197 0l0 0c0.9689331 0 1.8982544 0.3849182 2.583435 1.0700989c0.68518066 0.68515015 1.0700684 1.6144714 1.0700684 2.583435l0 41.858276c0 2.0177917 -1.6357422 3.653534 -3.6535034 3.653534l-14.614197 0c-2.0178223 0 -3.6535645 -1.6357422 -3.6535645 -3.653534z" fill-rule="evenodd"/><path fill="#cfe2f3" d="m304.22882 371.94083l0 0c0 -1.7916565 1.4524231 -3.24411 3.24411 -3.24411l345.00784 0c0.8604126 0 1.6855469 0.34179688 2.2939453 0.9501953c0.60839844 0.6083679 0.9501953 1.4335327 0.9501953 2.2939148l0 12.976379c0 1.7916565 -1.4524536 3.2440796 -3.2441406 3.2440796l-345.00784 0l0 0c-1.791687 0 -3.24411 -1.4524231 -3.24411 -3.2440796z" fill-rule="evenodd"/><path stroke="#000000" stroke-width="1.0" stroke-linejoin="round" stroke-linecap="butt" d="m304.22882 371.94083l0 0c0 -1.7916565 1.4524231 -3.24411 3.24411 -3.24411l345.00784 0c0.8604126 0 1.6855469 0.34179688 2.2939453 0.9501953c0.60839844 0.6083679 0.9501953 1.4335327 0.9501953 2.2939148l0 12.976379c0 1.7916565 -1.4524536 3.2440796 -3.2441406 3.2440796l-345.00784 0l0 0c-1.791687 0 -3.24411 -1.4524231 -3.24411 -3.2440796z" fill-rule="evenodd"/><path fill="#cfe2f3" d="m446.42407 188.70857l0 0c0 -6.180954 5.0106506 -11.191605 11.191589 -11.191605l44.76642 0l0 0c2.9682007 0 5.8148193 1.1791229 7.9136353 3.277954c2.098816 2.0988312 3.277954 4.94545 3.277954 7.9136505l0 137.6483c0 6.1809387 -5.0106506 11.191589 -11.191589 11.191589l-44.76642 0c-6.1809387 0 -11.191589 -5.0106506 -11.191589 -11.191589z" fill-rule="evenodd"/><path stroke="#000000" stroke-width="1.0" stroke-linejoin="round" stroke-linecap="butt" d="m446.42407 188.70857l0 0c0 -6.180954 5.0106506 -11.191605 11.191589 -11.191605l44.76642 0l0 0c2.9682007 0 5.8148193 1.1791229 7.9136353 3.277954c2.098816 2.0988312 3.277954 4.94545 3.277954 7.9136505l0 137.6483c0 6.1809387 -5.0106506 11.191589 -11.191589 11.191589l-44.76642 0c-6.1809387 0 -11.191589 -5.0106506 -11.191589 -11.191589z" fill-rule="evenodd"/><path fill="#cfe2f3" d="m469.01645 127.811195l0 0c0 -2.0177917 1.6357422 -3.6535416 3.653534 -3.6535416l14.614197 0l0 0c0.9689636 0 1.8982544 0.38492584 2.583435 1.0700989c0.68518066 0.68517303 1.0700989 1.6144638 1.0700989 2.5834427l0 47.874016c0 2.0177917 -1.6357422 3.6535492 -3.653534 3.6535492l-14.614197 0c-2.0177917 0 -3.653534 -1.6357574 -3.653534 -3.6535492z" fill-rule="evenodd"/><path stroke="#000000" stroke-width="1.0" stroke-linejoin="round" stroke-linecap="butt" d="m469.01645 127.811195l0 0c0 -2.0177917 1.6357422 -3.6535416 3.653534 -3.6535416l14.614197 0l0 0c0.9689636 0 1.8982544 0.38492584 2.583435 1.0700989c0.68518066 0.68517303 1.0700989 1.6144638 1.0700989 2.5834427l0 47.874016c0 2.0177917 -1.6357422 3.6535492 -3.653534 3.6535492l-14.614197 0c-2.0177917 0 -3.653534 -1.6357574 -3.653534 -3.6535492z" fill-rule="evenodd"/><path fill="#cfe2f3" d="m541.3858 580.74805l21.921265 0l-21.921265 58.740112z" fill-rule="evenodd"/><path stroke="#000000" stroke-width="1.0" stroke-linejoin="round" stroke-linecap="butt" d="m541.3858 580.74805l21.921265 0l-21.921265 58.740112z" fill-rule="evenodd"/><path fill="#cfe2f3" d="m418.61417 591.4829l122.77164 0l0 19.4646l-122.77164 0z" fill-rule="evenodd"/><path stroke="#000000" stroke-width="1.0" stroke-linejoin="round" stroke-linecap="butt" d="m418.61417 591.4829l122.77164 0l0 19.4646l-122.77164 0z" fill-rule="evenodd"/><path fill="#cfe2f3" d="m418.61417 580.74805l-21.921265 0l21.921265 58.740112z" fill-rule="evenodd"/><path stroke="#000000" stroke-width="1.0" stroke-linejoin="round" stroke-linecap="butt" d="m418.61417 580.74805l-21.921265 0l21.921265 58.740112z" fill-rule="evenodd"/><path fill="#cfe2f3" d="m491.1979 580.8l-11.196869 55.275574l-11.196838 -55.275574z" fill-rule="evenodd"/><path stroke="#000000" stroke-width="1.0" stroke-linejoin="round" stroke-linecap="butt" d="m491.1979 580.8l-11.196869 55.275574l-11.196838 -55.275574z" fill-rule="evenodd"/></g></svg>